<svg id="svg" version="1.1" width="400" height="210.9375" viewBox="0 0 400 210.9375" xmlns="http://www.w3.org/2000/svg" xmlns:xlink="http://www.w3.org/1999/xlink" ><g id="svgg"><path id="path0" d="M298.533 10.573 C 297.960 11.091,295.979 14.500,296.251 14.500 C 296.309 14.500,296.245 14.612,296.108 14.749 C 295.586 15.271,293.582 22.389,292.683 26.917 C 292.210 29.303,291.967 31.106,291.673 34.417 C 291.600 35.242,291.530 47.548,291.518 61.765 L 291.496 87.614 295.330 87.725 C 297.438 87.786,301.002 87.786,303.250 87.725 L 307.336 87.613 307.320 61.098 C 307.311 46.515,307.237 33.983,307.154 33.250 C 306.819 30.269,306.633 28.985,306.246 26.971 C 304.816 19.548,302.336 12.503,300.511 10.678 C 299.684 9.851,299.352 9.834,298.533 10.573 M186.300 72.173 C 185.472 72.611,183.590 75.378,183.438 76.384 C 183.421 76.493,183.348 76.678,183.276 76.794 C 182.598 77.879,182.500 79.146,182.500 86.843 L 182.500 94.357 183.031 95.137 C 183.763 96.213,183.552 96.161,187.210 96.164 L 190.504 96.167 191.097 95.240 L 191.690 94.313 191.673 86.678 C 191.654 78.155,191.650 78.125,190.415 75.525 C 188.992 72.527,187.670 71.450,186.300 72.173 M239.684 72.180 C 238.827 72.702,237.579 74.223,237.763 74.521 C 237.812 74.601,237.790 74.667,237.712 74.667 C 237.475 74.667,236.965 75.668,237.067 75.934 C 237.120 76.071,237.095 76.142,237.012 76.091 C 236.854 75.993,236.521 76.799,236.087 78.332 C 235.869 79.101,235.829 80.443,235.837 86.741 L 235.846 94.234 236.362 95.075 C 237.061 96.216,236.848 96.161,240.544 96.164 L 243.837 96.167 244.460 95.208 L 245.083 94.250 245.083 86.750 C 245.083 78.208,245.102 78.360,243.672 75.417 C 242.198 72.384,240.976 71.392,239.684 72.180 M291.500 136.104 C 291.500 170.771,291.467 176.217,291.257 176.815 C 291.123 177.194,291.001 177.560,290.985 177.627 C 290.970 177.695,290.933 177.825,290.903 177.917 C 290.874 178.008,290.653 178.683,290.414 179.417 C 288.869 184.152,288.834 184.306,288.842 186.333 L 288.850 188.250 290.083 189.572 L 291.317 190.893 299.440 190.895 L 307.562 190.897 308.788 189.573 L 310.015 188.250 309.950 186.000 L 309.885 183.750 308.609 179.840 L 307.333 175.930 307.333 136.007 L 307.333 96.083 299.417 96.083 L 291.500 96.083 291.500 136.104 M183.667 104.060 L 183.667 111.453 185.508 111.569 C 186.521 111.633,188.058 111.634,188.925 111.570 L 190.500 111.454 190.500 104.060 L 190.500 96.667 187.083 96.667 L 183.667 96.667 183.667 104.060 M237.000 104.060 L 237.000 111.453 238.841 111.569 C 239.854 111.633,241.392 111.634,242.258 111.570 L 243.833 111.454 243.833 104.060 L 243.833 96.667 240.417 96.667 L 237.000 96.667 237.000 104.060 M140.667 111.618 C 140.233 111.776,139.646 112.394,139.314 113.042 L 138.993 113.667 141.333 113.667 L 143.673 113.667 143.344 113.021 C 142.721 111.799,141.673 111.250,140.667 111.618 M138.186 116.596 C 137.791 117.931,137.512 119.068,137.565 119.121 C 137.708 119.264,144.948 119.271,145.093 119.128 C 145.161 119.061,144.892 117.917,144.495 116.586 L 143.774 114.167 141.338 114.167 L 138.903 114.167 138.186 116.596 M231.513 117.265 C 230.478 118.136,229.309 120.719,229.088 122.624 L 228.970 123.646 229.693 123.698 L 230.417 123.750 230.464 125.542 L 230.511 127.333 229.756 127.333 L 229.000 127.333 229.012 152.208 C 229.023 176.737,229.028 177.073,229.338 176.375 C 229.947 175.006,230.555 175.691,230.829 178.055 C 230.938 178.987,231.169 180.875,231.343 182.250 C 231.517 183.625,231.815 185.985,232.006 187.496 C 232.320 189.990,232.499 190.918,232.501 190.069 C 232.501 189.894,232.728 187.987,233.005 185.833 C 233.281 183.679,233.658 180.734,233.842 179.288 C 234.182 176.623,234.366 175.920,234.768 175.766 C 234.999 175.677,235.500 176.255,235.500 176.611 C 235.500 176.722,235.575 176.860,235.667 176.917 C 235.777 176.985,235.833 168.696,235.833 152.177 L 235.833 127.333 235.083 127.333 L 234.333 127.333 234.333 125.593 L 234.333 123.852 235.042 123.801 L 235.750 123.750 235.704 122.833 C 235.520 119.215,233.068 115.957,231.513 117.265 M247.811 117.085 C 246.759 117.657,245.379 120.552,245.213 122.538 L 245.118 123.667 245.815 123.667 L 246.511 123.667 246.464 125.533 L 246.417 127.400 245.833 127.408 L 245.250 127.417 245.225 152.167 C 245.208 169.312,245.253 176.753,245.371 176.385 C 245.866 174.847,246.625 175.727,246.924 178.184 C 247.051 179.229,247.229 180.646,247.318 181.333 C 247.407 182.021,247.688 184.262,247.941 186.313 C 248.213 188.521,248.451 189.915,248.523 189.730 C 248.590 189.558,248.916 187.242,249.246 184.583 C 250.415 175.187,250.639 174.399,251.553 176.500 C 251.781 177.026,251.807 174.624,251.820 152.208 L 251.833 127.333 251.167 127.333 L 250.500 127.333 250.500 125.583 L 250.500 123.833 251.167 123.833 L 251.833 123.833 251.833 123.149 C 251.833 119.974,249.359 116.244,247.811 117.085 M137.174 122.750 C 137.161 124.779,137.214 125.833,137.327 125.833 C 137.440 125.833,137.500 124.766,137.500 122.750 C 137.500 120.986,137.434 119.667,137.347 119.667 C 137.260 119.667,137.185 121.000,137.174 122.750 M141.042 119.791 L 138.000 119.841 138.000 122.587 L 138.000 125.333 141.333 125.333 L 144.667 125.333 144.667 122.500 C 144.667 119.898,144.643 119.670,144.375 119.704 C 144.215 119.725,142.715 119.764,141.042 119.791 M145.000 122.937 C 145.000 125.825,145.029 126.183,145.250 126.000 C 145.456 125.829,145.500 125.249,145.500 122.730 C 145.500 120.118,145.463 119.667,145.250 119.667 C 145.036 119.667,145.000 120.141,145.000 122.937 M185.458 124.112 C 185.207 124.180,185.167 124.407,185.167 125.762 L 185.167 127.333 184.417 127.333 L 183.667 127.333 183.680 152.292 C 183.692 174.898,183.717 177.182,183.948 176.530 C 184.481 175.022,185.198 175.572,185.481 177.705 C 185.582 178.463,185.968 181.558,186.339 184.583 C 186.977 189.776,187.120 190.758,187.155 190.167 C 187.163 190.029,187.394 188.192,187.669 186.083 C 187.943 183.975,188.332 180.949,188.532 179.358 C 189.000 175.633,189.430 174.899,190.170 176.561 C 190.469 177.234,190.477 176.669,190.488 152.292 L 190.500 127.333 189.839 127.333 L 189.179 127.333 189.131 125.708 L 189.083 124.083 187.417 124.058 C 186.500 124.044,185.619 124.069,185.458 124.112 M238.500 125.740 L 238.500 127.314 237.792 127.365 L 237.083 127.417 237.050 152.333 C 237.019 176.071,237.031 177.215,237.305 176.501 C 237.932 174.866,238.562 175.622,238.908 178.426 C 239.701 184.846,240.376 190.090,240.415 190.133 C 240.490 190.215,240.609 189.357,241.442 182.767 C 242.376 175.382,242.633 174.606,243.503 176.561 C 243.803 177.234,243.810 176.669,243.822 152.292 L 243.833 127.333 243.167 127.333 L 242.500 127.333 242.500 125.750 L 242.500 124.167 240.500 124.167 L 238.500 124.167 238.500 125.740 M138.000 129.875 L 138.000 133.833 141.333 133.833 L 144.667 133.833 144.667 129.822 L 144.667 125.810 141.333 125.863 L 138.000 125.917 138.000 129.875 M138.000 139.476 L 138.000 144.618 139.125 144.725 C 139.744 144.783,141.244 144.831,142.458 144.832 L 144.667 144.833 144.667 139.583 L 144.667 134.333 141.333 134.333 L 138.000 134.333 138.000 139.476 M141.042 145.458 L 138.000 145.508 138.000 166.397 L 138.000 187.287 138.408 187.209 C 139.069 187.083,139.499 187.961,139.499 189.439 C 139.500 190.842,139.477 190.828,141.625 190.831 L 143.000 190.833 143.001 189.625 C 143.001 187.946,143.733 186.766,144.419 187.335 C 144.638 187.517,144.667 185.097,144.667 166.437 C 144.667 146.435,144.651 145.335,144.375 145.371 C 144.215 145.392,142.715 145.431,141.042 145.458 M98.091 158.110 C 97.699 159.008,97.589 159.545,97.512 160.929 L 97.417 162.639 98.250 162.735 C 98.708 162.788,99.233 162.800,99.417 162.762 C 99.600 162.724,99.806 162.686,99.875 162.679 C 100.493 162.616,99.336 157.000,98.706 157.000 C 98.633 157.000,98.357 157.499,98.091 158.110 M97.333 165.405 L 97.333 167.643 98.213 167.753 C 98.697 167.813,99.316 167.837,99.588 167.806 L 100.083 167.750 100.133 166.000 C 100.161 165.037,100.139 164.006,100.084 163.708 L 99.985 163.167 98.659 163.167 L 97.333 163.167 97.333 165.405 M97.333 178.306 C 97.333 180.125,97.284 183.324,97.223 185.416 C 97.140 188.270,97.160 189.191,97.304 189.101 C 97.428 189.025,97.462 189.072,97.399 189.237 C 96.934 190.448,99.036 191.135,99.786 190.017 L 100.167 189.451 100.167 182.225 L 100.167 175.000 98.750 175.000 L 97.333 175.000 97.333 178.306 M143.831 188.004 C 143.642 188.357,143.607 189.141,143.655 191.968 L 143.667 192.687 144.292 192.635 L 144.917 192.583 144.914 191.083 C 144.911 189.318,144.773 188.564,144.350 188.014 L 144.041 187.612 143.831 188.004 M138.220 188.042 C 137.846 188.624,137.671 189.572,137.669 191.022 L 137.667 192.627 138.333 192.637 L 139.000 192.646 138.995 190.531 C 138.989 188.237,138.696 187.297,138.220 188.042 M98.333 191.667 C 98.333 192.089,98.398 192.167,98.750 192.167 C 99.102 192.167,99.167 192.089,99.167 191.667 C 99.167 191.244,99.102 191.167,98.750 191.167 C 98.398 191.167,98.333 191.244,98.333 191.667 M139.500 192.000 L 139.500 192.667 141.250 192.667 L 143.000 192.667 143.000 192.000 L 143.000 191.333 141.250 191.333 L 139.500 191.333 139.500 192.000 M291.757 192.209 C 291.632 192.507,291.459 193.144,291.371 193.625 L 291.212 194.500 292.356 194.500 C 292.985 194.500,293.500 194.439,293.500 194.364 C 293.500 194.289,293.381 193.826,293.235 193.335 C 292.735 191.652,292.169 191.221,291.757 192.209 M294.821 192.024 C 294.608 192.422,294.172 193.937,294.169 194.292 C 294.167 194.438,294.504 194.500,295.304 194.500 L 296.442 194.500 296.372 194.023 C 296.171 192.654,295.172 191.367,294.821 192.024 M297.644 192.118 C 297.542 192.374,297.364 193.015,297.250 193.542 L 297.041 194.500 298.195 194.500 L 299.348 194.500 299.235 193.875 C 298.952 192.317,297.990 191.254,297.644 192.118 M300.613 192.114 C 300.422 192.488,300.000 194.080,300.000 194.425 C 300.000 194.466,300.517 194.500,301.149 194.500 L 302.298 194.500 302.139 193.793 C 301.775 192.173,301.012 191.334,300.613 192.114 M303.611 191.792 C 303.443 192.069,303.000 193.753,303.000 194.114 C 303.000 194.478,303.061 194.500,304.091 194.500 L 305.182 194.500 305.068 193.875 C 304.829 192.558,303.927 191.269,303.611 191.792 M306.526 191.886 C 306.373 192.070,305.844 193.979,305.836 194.375 C 305.834 194.444,306.352 194.500,306.985 194.500 L 308.137 194.500 307.929 193.605 C 307.606 192.219,306.933 191.394,306.526 191.886 M98.347 193.508 C 98.098 194.671,98.096 194.667,98.750 194.667 C 99.377 194.667,99.601 194.001,99.133 193.533 C 99.023 193.423,98.988 193.333,99.056 193.333 C 99.123 193.333,99.098 193.183,99.000 193.000 C 98.716 192.469,98.541 192.606,98.347 193.508 M138.531 193.346 C 138.083 194.559,138.107 194.667,138.817 194.667 L 139.473 194.667 139.305 194.042 C 139.059 193.126,138.724 192.825,138.531 193.346 M141.016 193.525 C 140.691 194.457,140.765 194.667,141.417 194.667 C 142.090 194.667,142.151 194.452,141.731 193.567 C 141.397 192.864,141.250 192.855,141.016 193.525 M143.509 193.625 C 143.243 194.583,143.275 194.667,143.917 194.667 C 144.581 194.667,144.638 194.486,144.259 193.578 C 143.947 192.833,143.725 192.846,143.509 193.625 M184.329 193.428 C 183.990 194.319,184.108 194.667,184.750 194.667 C 185.413 194.667,185.436 194.596,185.065 193.670 C 184.755 192.894,184.557 192.828,184.329 193.428 M186.110 193.124 C 186.056 193.211,185.962 193.593,185.901 193.974 L 185.791 194.667 186.409 194.667 C 187.018 194.667,187.025 194.659,186.914 194.125 C 186.789 193.529,186.264 192.875,186.110 193.124 M187.683 193.525 C 187.358 194.457,187.432 194.667,188.083 194.667 C 188.756 194.667,188.818 194.452,188.398 193.567 C 188.064 192.864,187.916 192.855,187.683 193.525 M189.350 193.525 C 189.025 194.457,189.098 194.667,189.750 194.667 C 190.414 194.667,190.471 194.486,190.092 193.578 C 189.792 192.861,189.586 192.847,189.350 193.525 M229.713 193.260 C 229.206 194.248,229.297 194.667,230.022 194.667 C 230.574 194.667,230.683 194.617,230.601 194.403 C 230.546 194.258,230.500 194.041,230.500 193.921 C 230.500 193.415,229.895 192.906,229.713 193.260 M231.371 193.333 C 230.911 194.567,230.935 194.667,231.681 194.667 C 232.240 194.667,232.350 194.617,232.268 194.403 C 232.212 194.258,232.167 194.041,232.167 193.921 C 232.167 193.802,232.022 193.527,231.846 193.310 L 231.526 192.917 231.371 193.333 M233.102 193.137 C 233.053 193.215,232.944 193.591,232.858 193.973 L 232.702 194.667 233.351 194.667 C 234.067 194.667,234.107 194.580,233.767 193.765 C 233.517 193.166,233.243 192.908,233.102 193.137 M234.749 193.292 C 234.283 194.419,234.332 194.667,235.018 194.667 C 235.762 194.667,235.819 194.498,235.386 193.589 C 235.072 192.931,234.926 192.863,234.749 193.292 M237.693 193.425 C 237.305 194.277,237.431 194.667,238.097 194.667 C 238.682 194.667,238.691 194.657,238.577 194.125 C 238.331 192.978,238.012 192.726,237.693 193.425 M239.433 193.141 C 239.385 193.218,239.296 193.593,239.235 193.974 L 239.124 194.667 239.729 194.667 C 240.425 194.667,240.488 194.459,240.064 193.567 C 239.797 193.004,239.600 192.871,239.433 193.141 M241.016 193.525 C 240.691 194.457,240.765 194.667,241.417 194.667 C 242.081 194.667,242.138 194.486,241.759 193.578 C 241.459 192.861,241.253 192.847,241.016 193.525 M242.683 193.525 C 242.356 194.464,242.430 194.667,243.102 194.667 L 243.704 194.667 243.587 194.042 C 243.379 192.930,242.972 192.697,242.683 193.525 M245.775 193.126 C 245.732 193.196,245.644 193.533,245.580 193.876 L 245.463 194.500 246.065 194.500 C 246.740 194.500,246.783 194.379,246.398 193.567 C 246.135 193.014,245.933 192.871,245.775 193.126 M247.433 193.141 C 247.385 193.218,247.296 193.593,247.235 193.974 L 247.124 194.667 247.729 194.667 C 248.416 194.667,248.474 194.493,248.092 193.578 C 247.857 193.017,247.611 192.853,247.433 193.141 M249.009 193.625 C 248.741 194.589,248.773 194.667,249.438 194.667 C 250.040 194.667,250.043 194.663,249.947 194.068 C 249.759 192.915,249.270 192.684,249.009 193.625 M250.675 193.625 C 250.433 194.499,250.433 194.500,251.083 194.500 C 251.703 194.500,251.885 194.119,251.467 193.700 C 251.357 193.590,251.328 193.500,251.404 193.500 C 251.479 193.500,251.447 193.387,251.333 193.250 C 251.012 192.863,250.864 192.947,250.675 193.625 " stroke="none" fill="#e9e9e9" fill-rule="evenodd"></path><path id="path1" d="M0.000 105.417 L 0.000 210.833 200.000 210.833 L 400.000 210.833 400.000 105.417 L 400.000 0.000 200.000 0.000 L 0.000 0.000 0.000 105.417 M300.663 10.684 C 302.956 13.192,305.927 22.708,307.032 31.083 C 307.357 33.548,307.392 34.835,307.495 48.083 C 307.602 61.799,307.623 62.517,307.978 64.750 C 308.872 70.367,309.133 71.626,310.266 75.799 C 311.826 81.545,312.667 86.154,312.667 88.957 L 312.667 90.000 309.990 90.000 C 308.416 90.000,307.352 90.063,307.408 90.152 C 307.573 90.419,305.229 90.520,300.083 90.467 L 295.083 90.417 295.083 89.125 L 295.083 87.833 293.208 87.833 L 291.333 87.833 291.333 88.917 L 291.333 90.000 288.843 90.000 C 287.474 90.000,286.315 89.939,286.269 89.864 C 285.757 89.036,286.987 82.024,288.890 74.917 C 289.677 71.980,289.999 70.436,290.767 65.917 L 291.220 63.250 291.338 48.667 C 291.484 30.610,291.553 29.874,293.940 21.000 C 295.222 16.237,295.412 15.690,296.612 13.321 C 298.380 9.829,299.322 9.216,300.663 10.684 M187.911 72.047 C 188.683 72.484,189.572 73.602,190.303 75.054 C 191.795 78.016,191.833 78.316,191.833 86.969 L 191.832 94.250 191.284 95.161 C 190.602 96.294,190.595 96.296,187.053 96.317 C 183.667 96.336,183.528 96.297,182.852 95.116 L 182.333 94.209 182.333 86.773 C 182.333 78.383,182.361 78.147,183.675 75.398 C 185.104 72.407,186.541 71.271,187.911 72.047 M241.152 71.993 C 242.300 72.578,243.616 74.558,244.537 77.086 L 245.083 78.583 245.129 86.417 L 245.174 94.250 244.622 95.161 C 243.933 96.297,243.934 96.296,240.305 96.317 C 236.819 96.336,236.990 96.385,236.252 95.169 L 235.667 94.206 235.667 86.739 C 235.667 78.312,235.688 78.129,237.011 75.417 C 238.461 72.445,239.826 71.316,241.152 71.993 M307.487 91.690 C 307.685 92.310,307.715 95.833,307.523 95.833 C 307.464 95.833,307.454 114.002,307.500 136.208 L 307.583 176.583 308.022 177.833 C 308.566 179.387,309.545 182.439,309.900 183.692 C 310.071 184.298,310.166 185.280,310.164 186.442 L 310.161 188.250 308.900 189.625 L 307.638 191.000 299.417 191.000 L 291.195 191.000 289.934 189.625 L 288.672 188.250 288.669 186.402 C 288.666 184.395,288.803 183.818,290.567 178.395 L 291.333 176.040 291.333 136.020 L 291.333 96.000 293.162 96.000 L 294.991 96.000 295.037 93.542 L 295.083 91.083 301.083 91.000 C 304.383 90.954,307.131 90.954,307.188 91.000 C 307.246 91.046,307.380 91.356,307.487 91.690 M190.500 104.087 L 190.500 111.673 187.042 111.628 L 183.583 111.583 183.540 104.042 L 183.497 96.500 186.998 96.500 L 190.500 96.500 190.500 104.087 M243.833 104.087 L 243.833 111.673 240.375 111.628 C 237.200 111.587,236.918 111.559,236.938 111.292 C 236.949 111.131,236.968 107.737,236.979 103.750 L 237.000 96.500 240.417 96.500 L 243.833 96.500 243.833 104.087 M142.286 111.661 C 142.845 112.002,143.667 113.144,143.667 113.580 C 143.667 113.862,139.106 113.972,138.934 113.694 C 138.786 113.455,139.503 112.204,139.970 111.886 C 140.929 111.236,141.497 111.181,142.286 111.661 M190.500 117.637 L 190.500 123.286 188.335 123.404 C 187.144 123.469,186.094 123.475,186.002 123.418 C 185.894 123.351,185.833 121.292,185.833 117.678 L 185.833 112.042 188.167 112.015 L 190.500 111.988 190.500 117.637 M243.833 117.640 L 243.833 123.291 241.674 123.410 C 240.487 123.476,239.437 123.481,239.341 123.422 C 239.225 123.350,239.167 121.422,239.167 117.672 L 239.167 112.030 241.500 112.010 L 243.833 111.989 243.833 117.640 M144.181 115.208 C 144.378 115.873,144.718 116.977,144.936 117.662 C 145.155 118.347,145.333 118.992,145.333 119.095 C 145.333 119.416,137.550 119.585,137.227 119.272 C 137.206 119.251,138.587 114.649,138.747 114.208 C 138.803 114.054,139.474 114.000,141.323 114.000 L 143.824 114.000 144.181 115.208 M233.095 116.980 C 234.076 117.578,235.546 120.361,235.764 122.034 C 235.816 122.428,235.878 136.100,235.903 152.417 C 235.930 170.926,236.019 183.930,236.138 186.994 C 236.270 190.364,236.276 191.958,236.158 192.075 C 235.875 192.358,235.716 191.903,235.590 190.456 C 235.349 187.696,234.985 187.655,233.760 190.251 C 232.475 192.976,232.344 192.972,231.061 190.167 C 230.621 189.204,230.163 188.356,230.044 188.281 C 229.871 188.174,229.829 186.890,229.838 182.053 C 229.850 175.439,229.848 175.421,229.403 176.659 C 229.237 177.121,229.040 177.500,228.967 177.500 C 228.893 177.500,228.851 166.194,228.874 152.375 L 228.917 127.250 229.625 127.199 L 230.333 127.148 230.333 125.490 L 230.333 123.833 229.560 123.833 L 228.787 123.833 228.896 122.768 C 229.264 119.185,231.547 116.036,233.095 116.980 M249.475 117.247 C 250.179 117.883,250.993 119.291,251.522 120.787 C 251.860 121.742,251.862 121.964,251.841 149.000 C 251.829 165.155,251.888 177.505,251.986 179.333 C 252.278 184.781,252.402 192.167,252.201 192.167 C 251.919 192.167,251.868 192.002,251.658 190.408 C 251.307 187.743,251.013 187.696,249.881 190.127 C 248.553 192.981,248.469 192.973,246.984 189.884 L 246.000 187.835 246.000 181.801 C 246.000 178.078,245.941 175.827,245.845 175.925 C 245.760 176.012,245.539 176.458,245.354 176.917 L 245.018 177.750 245.009 152.458 L 245.000 127.167 245.667 127.167 L 246.333 127.167 246.333 125.500 L 246.333 123.833 245.643 123.833 L 244.952 123.833 245.044 122.625 C 245.251 119.913,247.154 116.670,248.541 116.667 C 248.701 116.667,249.121 116.928,249.475 117.247 M137.667 122.942 C 137.667 126.374,137.666 126.384,137.333 126.083 C 137.022 125.802,137.000 125.570,137.000 122.641 C 137.000 119.611,137.012 119.500,137.333 119.500 C 137.656 119.500,137.667 119.611,137.667 122.942 M145.629 122.631 L 145.674 125.674 145.257 126.092 C 144.840 126.509,144.840 126.510,144.795 130.213 L 144.750 133.917 141.333 133.917 L 137.917 133.917 137.872 129.833 L 137.828 125.750 141.330 125.779 C 143.922 125.801,144.833 125.758,144.833 125.613 C 144.834 125.467,143.933 125.429,141.333 125.465 L 137.833 125.513 137.833 122.593 L 137.833 119.673 141.458 119.623 C 143.452 119.596,145.196 119.577,145.333 119.581 C 145.544 119.587,145.590 120.061,145.629 122.631 M190.583 151.059 C 190.583 170.362,190.648 180.225,190.808 185.059 C 190.968 189.932,190.981 191.919,190.852 192.048 C 190.560 192.340,190.472 192.099,190.306 190.551 C 190.002 187.714,189.687 187.659,188.452 190.227 C 187.239 192.750,187.011 192.849,186.233 191.192 C 185.990 190.674,185.538 189.713,185.229 189.058 L 184.667 187.865 184.667 181.829 C 184.667 175.564,184.586 174.942,184.020 176.831 C 183.910 177.199,183.748 177.500,183.659 177.500 C 183.557 177.500,183.514 168.401,183.541 152.375 L 183.583 127.250 184.292 127.199 L 185.000 127.148 185.001 125.532 L 185.003 123.917 187.793 123.892 L 190.583 123.868 190.583 151.059 M234.794 123.951 C 235.001 123.991,235.301 123.990,235.460 123.948 C 235.620 123.906,235.450 123.874,235.083 123.875 C 234.717 123.877,234.586 123.911,234.794 123.951 M243.917 150.792 C 243.917 169.987,243.982 179.782,244.144 184.806 C 244.309 189.923,244.321 191.913,244.188 192.045 C 243.907 192.326,243.858 192.187,243.606 190.379 C 243.312 188.276,242.917 187.673,242.512 188.708 C 242.088 189.793,240.994 191.964,240.784 192.139 C 240.272 192.563,239.625 191.644,238.553 188.971 C 238.418 188.635,238.201 188.318,238.070 188.268 C 237.871 188.192,237.833 187.198,237.833 182.079 C 237.833 178.725,237.772 176.018,237.696 176.065 C 237.621 176.112,237.459 176.454,237.336 176.825 C 237.214 177.196,237.069 177.500,237.015 177.500 C 236.961 177.500,236.934 166.194,236.956 152.375 L 236.994 127.250 237.664 127.199 L 238.333 127.148 238.333 125.579 L 238.333 124.010 240.458 123.958 C 241.627 123.929,242.883 123.889,243.250 123.870 L 243.917 123.833 243.917 150.792 M250.875 123.948 C 251.035 123.990,251.298 123.990,251.458 123.948 C 251.619 123.906,251.487 123.872,251.167 123.872 C 250.846 123.872,250.715 123.906,250.875 123.948 M144.833 139.518 L 144.833 144.791 142.849 144.909 C 141.757 144.974,140.182 144.974,139.349 144.909 L 137.833 144.790 137.833 139.509 L 137.833 134.228 141.333 134.237 L 144.833 134.246 144.833 139.518 M144.833 166.500 C 144.833 178.142,144.795 187.667,144.748 187.667 C 144.701 187.667,144.508 187.573,144.321 187.458 C 143.657 187.054,143.167 187.926,143.167 189.509 L 143.167 190.833 141.250 190.833 L 139.333 190.833 139.333 189.575 C 139.333 187.773,138.734 186.832,138.033 187.533 C 137.878 187.689,137.833 183.022,137.833 166.533 L 137.833 145.333 141.333 145.333 L 144.833 145.333 144.833 166.500 M99.419 158.042 C 99.802 158.903,99.900 159.408,99.983 160.958 L 100.083 162.834 98.666 162.833 L 97.249 162.833 97.354 161.005 C 97.440 159.511,97.546 158.979,97.933 158.089 C 98.545 156.685,98.813 156.677,99.419 158.042 M100.167 165.500 L 100.167 167.833 98.667 167.833 L 97.167 167.833 97.167 165.500 L 97.167 163.167 98.667 163.167 L 100.167 163.167 100.167 165.500 M100.167 171.250 L 100.167 174.333 99.250 174.333 L 98.333 174.333 98.333 171.250 L 98.333 168.167 99.250 168.167 L 100.167 168.167 100.167 171.250 M100.215 181.792 C 100.274 185.745,100.253 189.038,100.168 189.417 C 99.853 190.814,98.384 191.269,97.551 190.228 L 97.168 189.750 97.167 182.292 L 97.167 174.833 98.640 174.833 L 100.113 174.833 100.215 181.792 M138.875 188.015 C 139.222 188.625,139.311 192.558,138.982 192.761 C 138.849 192.843,138.851 192.908,138.990 192.994 C 139.221 193.137,139.684 194.594,139.543 194.735 C 139.489 194.789,139.082 194.833,138.639 194.833 C 137.700 194.833,137.594 194.540,138.144 193.461 L 138.455 192.851 138.019 192.801 L 137.583 192.750 137.588 190.833 C 137.595 188.247,138.224 186.870,138.875 188.015 M144.831 188.833 C 144.923 189.154,144.999 190.194,144.999 191.143 L 145.000 192.870 144.438 192.804 L 143.877 192.739 144.193 193.167 C 144.367 193.402,144.554 193.873,144.610 194.214 L 144.710 194.833 143.833 194.833 L 142.956 194.833 143.047 194.154 C 143.097 193.780,143.257 193.343,143.403 193.182 C 143.548 193.021,143.633 192.855,143.590 192.813 C 143.341 192.563,143.483 188.301,143.754 187.886 L 144.042 187.447 144.353 187.849 C 144.524 188.069,144.739 188.512,144.831 188.833 M99.167 191.667 C 99.167 192.296,99.139 192.333,98.667 192.333 C 98.194 192.333,98.167 192.296,98.167 191.667 C 98.167 191.037,98.194 191.000,98.667 191.000 C 99.139 191.000,99.167 191.037,99.167 191.667 M143.167 192.000 L 143.167 192.833 142.333 192.833 L 141.499 192.833 141.833 193.456 C 142.413 194.539,142.309 194.833,141.343 194.833 C 140.890 194.833,140.478 194.766,140.428 194.684 C 140.303 194.484,140.792 193.130,141.047 192.968 C 141.158 192.897,140.819 192.837,140.292 192.836 L 139.333 192.833 139.333 192.000 L 139.333 191.167 141.250 191.167 L 143.167 191.167 143.167 192.000 M292.832 191.998 C 293.027 192.272,293.287 192.816,293.410 193.207 C 293.533 193.597,293.642 193.804,293.652 193.667 C 293.801 191.610,295.262 191.097,296.104 192.807 L 296.624 193.864 296.729 193.307 C 297.150 191.077,298.453 191.083,299.249 193.318 L 299.462 193.917 299.586 193.417 C 300.129 191.225,301.341 191.053,302.090 193.061 L 302.393 193.872 302.584 193.224 C 303.211 191.103,304.443 191.093,305.081 193.204 L 305.297 193.917 305.422 193.417 C 306.090 190.754,307.916 191.138,308.193 194.000 L 308.250 194.583 299.435 194.626 L 290.621 194.670 290.724 193.915 C 290.994 191.950,292.088 190.954,292.832 191.998 M99.208 193.177 C 99.800 194.340,99.632 194.833,98.644 194.833 L 97.788 194.833 97.895 194.052 C 98.104 192.528,98.682 192.142,99.208 193.177 M185.138 193.477 L 185.426 194.120 185.700 193.477 C 185.861 193.101,186.090 192.833,186.250 192.833 C 186.410 192.833,186.639 193.101,186.800 193.477 L 187.074 194.120 187.362 193.477 C 187.770 192.566,188.657 192.889,188.670 193.952 C 188.672 194.116,188.819 193.931,188.996 193.542 C 189.422 192.603,189.866 192.589,190.232 193.503 C 190.774 194.859,190.900 194.802,187.354 194.821 C 183.334 194.844,183.394 194.867,183.996 193.542 C 184.397 192.657,184.761 192.636,185.138 193.477 M230.445 193.407 L 230.719 193.980 230.984 193.449 C 231.377 192.664,231.788 192.670,232.127 193.463 L 232.408 194.120 232.696 193.477 C 232.859 193.113,233.101 192.833,233.254 192.833 C 233.410 192.833,233.642 193.107,233.800 193.477 L 234.074 194.120 234.362 193.477 C 234.738 192.637,235.088 192.663,235.527 193.566 C 236.130 194.806,236.116 194.812,232.551 194.822 C 229.123 194.831,228.894 194.781,229.072 194.060 C 229.382 192.799,230.013 192.499,230.445 193.407 M238.407 193.204 C 238.550 193.407,238.668 193.726,238.670 193.912 C 238.673 194.128,238.790 193.994,238.996 193.542 C 239.435 192.573,240.323 192.846,240.337 193.952 C 240.339 194.116,240.485 193.931,240.662 193.542 C 241.071 192.642,241.512 192.598,241.836 193.424 L 242.068 194.015 242.371 193.424 C 242.881 192.431,243.833 193.074,243.833 194.411 L 243.833 194.812 240.606 194.804 C 236.893 194.796,236.880 194.793,237.169 193.895 C 237.535 192.760,237.939 192.535,238.407 193.204 M246.516 193.449 L 246.781 193.980 247.055 193.407 C 247.391 192.701,247.759 192.676,248.133 193.332 C 248.487 193.954,248.548 193.954,248.782 193.333 C 248.905 193.007,249.087 192.833,249.305 192.833 C 249.516 192.833,249.720 193.018,249.860 193.333 C 249.982 193.608,250.122 193.833,250.171 193.833 C 250.220 193.833,250.345 193.608,250.449 193.333 C 250.805 192.391,251.833 193.105,251.833 194.294 C 251.833 194.650,250.297 194.846,248.083 194.773 C 247.533 194.754,246.613 194.723,246.038 194.703 L 244.994 194.667 245.104 194.208 C 245.441 192.800,246.032 192.482,246.516 193.449 " stroke="none" fill="#040404" fill-rule="evenodd"></path><path id="path2" d="M293.458 87.787 C 293.756 87.824,294.244 87.824,294.542 87.787 C 294.840 87.750,294.596 87.720,294.000 87.720 C 293.404 87.720,293.160 87.750,293.458 87.787 M306.294 87.785 C 306.501 87.824,306.801 87.823,306.960 87.781 C 307.120 87.739,306.950 87.707,306.583 87.709 C 306.217 87.711,306.086 87.745,306.294 87.785 M291.415 136.000 C 291.415 158.046,291.435 167.065,291.458 156.042 C 291.482 145.019,291.482 126.981,291.458 115.958 C 291.435 104.935,291.415 113.954,291.415 136.000 M297.958 96.124 C 298.806 96.154,300.194 96.154,301.042 96.124 C 301.890 96.094,301.196 96.069,299.500 96.069 C 297.804 96.069,297.110 96.094,297.958 96.124 M307.415 136.000 C 307.415 158.046,307.435 167.065,307.458 156.042 C 307.482 145.019,307.482 126.981,307.458 115.958 C 307.435 104.935,307.415 113.954,307.415 136.000 M186.628 96.287 C 186.928 96.325,187.378 96.324,187.628 96.286 C 187.878 96.248,187.633 96.217,187.083 96.218 C 186.533 96.219,186.328 96.250,186.628 96.287 M239.958 96.287 C 240.256 96.324,240.744 96.324,241.042 96.287 C 241.340 96.250,241.096 96.220,240.500 96.220 C 239.904 96.220,239.660 96.250,239.958 96.287 M241.794 96.618 C 242.001 96.658,242.301 96.656,242.460 96.615 C 242.620 96.573,242.450 96.540,242.083 96.542 C 241.717 96.544,241.586 96.578,241.794 96.618 M139.792 113.790 C 140.273 113.823,141.060 113.823,141.542 113.790 C 142.023 113.756,141.629 113.728,140.667 113.728 C 139.704 113.728,139.310 113.756,139.792 113.790 M140.458 114.122 C 140.848 114.157,141.485 114.157,141.875 114.122 C 142.265 114.087,141.946 114.058,141.167 114.058 C 140.387 114.058,140.069 114.087,140.458 114.122 M140.875 119.786 C 141.127 119.824,141.540 119.824,141.792 119.786 C 142.044 119.748,141.837 119.717,141.333 119.717 C 140.829 119.717,140.623 119.748,140.875 119.786 M144.735 122.333 C 144.735 123.846,144.760 124.465,144.791 123.708 C 144.822 122.952,144.822 121.715,144.791 120.958 C 144.760 120.202,144.735 120.821,144.735 122.333 M137.069 122.833 C 137.069 124.438,137.094 125.094,137.124 124.292 C 137.155 123.490,137.155 122.177,137.124 121.375 C 137.094 120.573,137.069 121.229,137.069 122.833 M246.396 125.583 C 246.396 126.592,246.424 126.983,246.457 126.452 C 246.490 125.922,246.490 125.097,246.456 124.619 C 246.422 124.141,246.395 124.575,246.396 125.583 M241.708 124.115 C 241.869 124.157,242.131 124.157,242.292 124.115 C 242.452 124.073,242.321 124.039,242.000 124.039 C 241.679 124.039,241.548 124.073,241.708 124.115 M138.542 125.448 C 138.702 125.490,138.965 125.490,139.125 125.448 C 139.285 125.406,139.154 125.372,138.833 125.372 C 138.512 125.372,138.381 125.406,138.542 125.448 M144.738 129.917 C 144.738 131.933,144.762 132.735,144.791 131.699 C 144.820 130.663,144.820 129.013,144.791 128.032 C 144.762 127.052,144.738 127.900,144.738 129.917 M242.875 127.282 C 243.035 127.323,243.298 127.323,243.458 127.282 C 243.619 127.240,243.487 127.205,243.167 127.205 C 242.846 127.205,242.715 127.240,242.875 127.282 M250.708 127.282 C 250.869 127.323,251.131 127.323,251.292 127.282 C 251.452 127.240,251.321 127.205,251.000 127.205 C 250.679 127.205,250.548 127.240,250.708 127.282 M139.377 133.953 C 139.631 133.991,140.006 133.990,140.211 133.951 C 140.416 133.911,140.208 133.880,139.750 133.881 C 139.292 133.882,139.124 133.915,139.377 133.953 M142.625 133.951 C 142.831 133.991,143.169 133.991,143.375 133.951 C 143.581 133.911,143.412 133.879,143.000 133.879 C 142.587 133.879,142.419 133.911,142.625 133.951 M144.741 139.500 C 144.741 142.387,144.764 143.569,144.791 142.125 C 144.819 140.681,144.819 138.319,144.791 136.875 C 144.764 135.431,144.741 136.612,144.741 139.500 M144.626 166.583 C 144.603 178.179,144.640 187.667,144.708 187.667 C 144.777 187.667,144.833 178.179,144.833 166.583 C 144.833 154.987,144.796 145.500,144.751 145.500 C 144.706 145.500,144.650 154.988,144.626 166.583 M98.625 174.954 C 98.923 174.991,99.410 174.991,99.708 174.954 C 100.006 174.917,99.763 174.887,99.167 174.887 C 98.571 174.887,98.327 174.917,98.625 174.954 M139.390 189.583 C 139.391 190.317,139.420 190.596,139.456 190.204 C 139.491 189.812,139.490 189.212,139.454 188.871 C 139.419 188.529,139.390 188.850,139.390 189.583 M139.065 190.583 C 139.065 191.775,139.092 192.241,139.124 191.618 C 139.156 190.996,139.156 190.021,139.123 189.451 C 139.091 188.882,139.064 189.392,139.065 190.583 M137.559 191.250 C 137.559 192.075,137.587 192.434,137.622 192.047 C 137.657 191.660,137.657 190.985,137.623 190.547 C 137.588 190.109,137.560 190.425,137.559 191.250 M291.961 190.954 C 292.261 190.991,292.711 190.990,292.961 190.952 C 293.212 190.914,292.967 190.884,292.417 190.885 C 291.867 190.886,291.662 190.917,291.961 190.954 M306.127 190.951 C 306.334 190.991,306.634 190.990,306.794 190.948 C 306.953 190.906,306.783 190.874,306.417 190.875 C 306.050 190.877,305.920 190.911,306.127 190.951 M139.400 192.040 L 139.417 192.750 141.250 192.759 L 143.083 192.769 141.301 192.712 L 139.519 192.656 139.451 191.993 L 139.384 191.331 139.400 192.040 M294.158 192.516 C 293.967 192.892,293.839 193.228,293.874 193.262 C 293.909 193.297,294.100 192.990,294.300 192.580 C 294.754 191.645,294.631 191.590,294.158 192.516 M98.375 192.282 C 98.535 192.323,98.798 192.323,98.958 192.282 C 99.119 192.240,98.987 192.205,98.667 192.205 C 98.346 192.205,98.215 192.240,98.375 192.282 M305.382 193.672 C 305.280 193.943,305.255 194.202,305.328 194.247 C 305.400 194.291,305.507 194.092,305.564 193.804 C 305.702 193.117,305.615 193.055,305.382 193.672 M188.867 193.910 C 188.764 194.136,188.743 194.361,188.821 194.409 C 188.898 194.457,189.001 194.291,189.050 194.040 C 189.164 193.445,189.100 193.399,188.867 193.910 M242.200 193.910 C 242.097 194.136,242.076 194.361,242.154 194.409 C 242.232 194.457,242.335 194.291,242.383 194.040 C 242.497 193.445,242.433 193.399,242.200 193.910 M293.672 193.823 C 293.574 194.006,293.563 194.186,293.647 194.238 C 293.729 194.288,293.831 194.143,293.874 193.915 C 293.970 193.417,293.905 193.387,293.672 193.823 M299.553 193.847 C 299.364 194.036,299.448 194.667,299.662 194.667 C 299.748 194.667,299.828 193.671,299.742 193.667 C 299.737 193.667,299.652 193.748,299.553 193.847 M291.880 194.623 C 292.318 194.657,292.993 194.657,293.380 194.622 C 293.767 194.587,293.408 194.559,292.583 194.559 C 291.758 194.560,291.442 194.588,291.880 194.623 M306.375 194.621 C 306.719 194.657,307.281 194.657,307.625 194.621 C 307.969 194.585,307.688 194.556,307.000 194.556 C 306.313 194.556,306.031 194.585,306.375 194.621 " stroke="none" fill="#595959" fill-rule="evenodd"></path><path id="path3" d="M291.413 48.917 C 291.413 55.883,291.433 58.709,291.458 55.196 C 291.483 51.683,291.483 45.983,291.458 42.529 C 291.433 39.076,291.413 41.950,291.413 48.917 M307.518 74.542 C 307.508 81.760,307.481 87.683,307.458 87.703 C 307.435 87.723,304.642 87.780,301.250 87.828 L 295.083 87.917 295.083 89.167 L 295.083 90.417 300.083 90.467 C 305.229 90.520,307.573 90.419,307.408 90.152 C 307.352 90.063,308.416 90.000,309.990 90.000 L 312.667 90.000 312.667 88.957 C 312.667 86.154,311.826 81.545,310.266 75.799 C 309.083 71.443,308.555 68.790,307.835 63.583 L 307.535 61.417 307.518 74.542 M291.167 62.593 C 291.167 64.270,289.889 71.189,288.890 74.917 C 286.987 82.024,285.757 89.036,286.269 89.864 C 286.315 89.939,287.474 90.000,288.843 90.000 L 291.333 90.000 291.333 88.925 L 291.333 87.851 292.208 87.790 L 293.083 87.728 292.250 87.697 L 291.417 87.667 291.441 74.916 C 291.455 67.537,291.403 62.126,291.316 62.073 C 291.234 62.022,291.167 62.256,291.167 62.593 M301.083 91.000 L 295.083 91.083 295.037 93.542 L 294.991 96.000 301.065 96.000 C 304.406 96.000,307.250 95.958,307.384 95.906 C 307.873 95.718,307.701 91.407,307.188 91.000 C 307.131 90.954,304.383 90.954,301.083 91.000 M184.461 96.287 C 184.761 96.325,185.211 96.324,185.461 96.286 C 185.712 96.248,185.467 96.217,184.917 96.218 C 184.367 96.219,184.162 96.250,184.461 96.287 M188.458 96.287 C 188.756 96.324,189.244 96.324,189.542 96.287 C 189.840 96.250,189.596 96.220,189.000 96.220 C 188.404 96.220,188.160 96.250,188.458 96.287 M237.625 96.287 C 237.923 96.324,238.410 96.324,238.708 96.287 C 239.006 96.250,238.762 96.220,238.167 96.220 C 237.571 96.220,237.327 96.250,237.625 96.287 M241.961 96.287 C 242.261 96.325,242.711 96.324,242.961 96.286 C 243.212 96.248,242.967 96.217,242.417 96.218 C 241.867 96.219,241.662 96.250,241.961 96.287 M183.577 104.000 C 183.577 108.171,183.598 109.877,183.625 107.792 C 183.651 105.706,183.651 102.294,183.625 100.208 C 183.598 98.123,183.577 99.829,183.577 104.000 M186.458 96.622 C 186.848 96.657,187.485 96.657,187.875 96.622 C 188.265 96.587,187.946 96.558,187.167 96.558 C 186.387 96.558,186.069 96.587,186.458 96.622 M239.708 96.621 C 240.052 96.657,240.615 96.657,240.958 96.621 C 241.302 96.585,241.021 96.556,240.333 96.556 C 239.646 96.556,239.365 96.585,239.708 96.621 M185.833 117.678 C 185.833 121.292,185.894 123.351,186.002 123.418 C 186.094 123.475,187.144 123.469,188.335 123.404 L 190.500 123.286 190.500 117.637 L 190.500 111.988 188.167 112.015 L 185.833 112.042 185.833 117.678 M239.167 117.672 C 239.167 121.422,239.225 123.350,239.341 123.422 C 239.437 123.481,240.487 123.476,241.674 123.410 L 243.833 123.291 243.833 117.640 L 243.833 111.989 241.500 112.010 L 239.167 112.030 239.167 117.672 M142.625 113.784 C 142.831 113.824,143.169 113.824,143.375 113.784 C 143.581 113.745,143.412 113.712,143.000 113.712 C 142.587 113.712,142.419 113.745,142.625 113.784 M140.875 119.455 C 141.219 119.491,141.781 119.491,142.125 119.455 C 142.469 119.419,142.188 119.389,141.500 119.389 C 140.813 119.389,140.531 119.419,140.875 119.455 M144.860 122.250 C 144.833 123.717,144.797 125.235,144.780 125.625 C 144.748 126.384,144.963 126.540,145.355 126.042 C 145.561 125.778,145.556 125.772,145.295 125.976 C 145.025 126.188,145.004 126.000,144.958 122.892 L 144.909 119.583 144.860 122.250 M145.569 122.667 C 145.569 124.362,145.594 125.056,145.624 124.208 C 145.654 123.360,145.654 121.973,145.624 121.125 C 145.594 120.277,145.569 120.971,145.569 122.667 M228.879 123.167 C 228.879 123.579,228.911 123.748,228.951 123.542 C 228.991 123.335,228.991 122.998,228.951 122.792 C 228.911 122.585,228.879 122.754,228.879 123.167 M251.740 123.849 C 251.678 123.950,251.374 124.002,251.064 123.966 L 250.500 123.900 250.500 125.533 C 250.500 127.115,250.512 127.167,250.875 127.169 C 251.081 127.170,251.422 127.217,251.633 127.274 L 252.016 127.377 251.989 125.522 C 251.961 123.644,251.943 123.521,251.740 123.849 M189.135 125.541 L 189.187 127.250 189.927 127.298 L 190.667 127.347 190.667 125.590 L 190.667 123.833 189.875 123.833 L 189.083 123.833 189.135 125.541 M235.125 123.955 L 234.500 124.020 234.500 125.635 L 234.500 127.250 235.250 127.270 L 236.000 127.290 236.000 125.562 C 236.000 124.611,235.944 123.846,235.875 123.861 C 235.806 123.877,235.469 123.919,235.125 123.955 M242.501 125.542 L 242.501 127.250 243.251 127.254 L 244.000 127.259 244.000 125.546 L 244.000 123.833 243.250 123.833 L 242.500 123.833 242.501 125.542 M239.629 124.122 C 240.021 124.157,240.621 124.157,240.963 124.121 C 241.304 124.085,240.983 124.057,240.250 124.057 C 239.517 124.058,239.237 124.087,239.629 124.122 M138.042 125.782 C 138.202 125.823,138.465 125.823,138.625 125.782 C 138.785 125.740,138.654 125.705,138.333 125.705 C 138.012 125.705,137.881 125.740,138.042 125.782 M183.577 127.375 C 183.533 127.490,183.517 138.833,183.541 152.583 L 183.584 177.583 183.626 152.468 L 183.667 127.352 184.375 127.289 L 185.083 127.225 184.370 127.196 C 183.929 127.178,183.626 127.246,183.577 127.375 M228.944 127.278 C 228.790 127.432,228.804 177.500,228.958 177.500 C 229.027 177.500,229.064 166.217,229.041 152.426 L 228.998 127.353 229.707 127.289 L 230.417 127.225 229.736 127.196 C 229.362 127.180,229.006 127.217,228.944 127.278 M236.896 127.411 C 236.844 127.546,236.841 127.752,236.888 127.870 C 236.935 127.987,236.980 127.919,236.987 127.718 C 236.998 127.412,237.115 127.342,237.708 127.289 L 238.417 127.225 237.703 127.196 C 237.209 127.176,236.961 127.242,236.896 127.411 M245.292 127.284 C 245.498 127.324,245.835 127.324,246.042 127.284 C 246.248 127.245,246.079 127.212,245.667 127.212 C 245.254 127.212,245.085 127.245,245.292 127.284 M144.667 133.639 C 144.667 133.746,144.423 133.845,144.125 133.858 C 143.592 133.883,143.591 133.884,144.062 133.955 C 144.540 134.026,144.996 133.774,144.781 133.558 C 144.718 133.496,144.667 133.532,144.667 133.639 M138.208 133.948 C 138.369 133.990,138.631 133.990,138.792 133.948 C 138.952 133.906,138.821 133.872,138.500 133.872 C 138.179 133.872,138.048 133.906,138.208 133.948 M139.208 134.282 C 139.369 134.323,139.631 134.323,139.792 134.282 C 139.952 134.240,139.821 134.205,139.500 134.205 C 139.179 134.205,139.048 134.240,139.208 134.282 M140.297 144.956 C 140.782 144.990,141.532 144.990,141.964 144.956 C 142.396 144.921,142.000 144.894,141.083 144.894 C 140.167 144.895,139.813 144.923,140.297 144.956 M98.333 171.250 L 98.333 174.333 99.250 174.333 L 100.167 174.333 100.167 171.250 L 100.167 168.167 99.250 168.167 L 98.333 168.167 98.333 171.250 M184.667 181.839 L 184.667 187.865 185.229 189.058 C 185.538 189.713,185.990 190.674,186.233 191.192 C 187.011 192.849,187.239 192.750,188.452 190.227 C 189.687 187.659,190.002 187.714,190.306 190.551 C 190.393 191.358,190.510 192.066,190.568 192.123 C 191.246 192.802,190.929 178.855,190.223 176.958 C 189.540 175.125,189.073 175.580,188.734 178.409 C 188.613 179.422,188.357 181.450,188.166 182.917 C 187.975 184.383,187.714 186.408,187.587 187.417 C 187.298 189.703,187.138 190.693,187.069 190.624 C 187.022 190.577,186.654 187.793,185.523 178.923 C 185.341 177.499,185.125 176.403,185.018 176.367 C 184.915 176.333,184.870 176.241,184.918 176.164 C 184.966 176.086,184.929 175.976,184.836 175.918 C 184.723 175.848,184.667 177.800,184.667 181.839 M229.837 181.990 C 229.829 186.876,229.871 188.174,230.044 188.282 C 230.163 188.356,230.621 189.204,231.061 190.167 C 232.344 192.972,232.475 192.976,233.760 190.251 C 234.985 187.655,235.349 187.696,235.590 190.456 C 235.714 191.888,235.876 192.357,236.151 192.082 C 236.502 191.730,236.017 178.214,235.616 177.167 C 234.807 175.053,234.381 175.469,233.998 178.750 C 233.881 179.758,233.764 180.733,233.740 180.917 C 233.158 185.271,232.500 190.367,232.500 190.521 C 232.500 190.632,232.464 190.686,232.420 190.642 C 232.325 190.547,232.063 188.663,231.180 181.721 C 230.584 177.035,230.336 175.833,229.967 175.833 C 229.902 175.833,229.843 178.604,229.837 181.990 M237.794 181.958 C 237.831 187.080,237.877 188.113,238.080 188.264 C 238.213 188.363,238.464 188.776,238.639 189.181 C 240.378 193.210,240.771 193.162,242.512 188.708 C 242.917 187.673,243.312 188.276,243.606 190.379 C 243.858 192.187,243.907 192.326,244.188 192.045 C 244.391 191.842,244.057 177.887,243.842 177.583 C 243.777 177.492,243.592 177.060,243.432 176.625 C 242.753 174.788,242.209 176.254,241.747 181.167 C 241.604 182.675,240.504 190.552,240.424 190.632 C 240.374 190.682,240.333 190.653,240.333 190.569 C 240.333 190.485,240.109 188.692,239.835 186.583 C 239.561 184.475,239.177 181.438,238.982 179.833 C 238.622 176.874,238.358 175.833,237.967 175.833 C 237.792 175.833,237.759 177.019,237.794 181.958 M246.000 181.799 L 246.000 187.835 246.984 189.884 C 248.469 192.973,248.553 192.981,249.881 190.127 C 251.013 187.696,251.307 187.743,251.658 190.408 C 251.868 192.004,251.919 192.167,252.203 192.167 C 252.385 192.167,252.322 187.158,252.057 180.509 C 251.846 175.239,250.673 174.143,250.086 178.667 C 249.425 183.756,249.154 185.893,248.912 187.917 C 248.546 190.967,248.362 191.090,248.101 188.455 C 248.005 187.482,247.071 180.201,246.751 177.932 C 246.610 176.928,246.417 176.179,246.259 176.021 C 246.025 175.787,246.000 176.336,246.000 181.799 M100.232 186.833 C 100.232 188.071,100.258 188.577,100.290 187.958 C 100.322 187.340,100.322 186.327,100.290 185.708 C 100.258 185.090,100.232 185.596,100.232 186.833 M306.750 191.621 C 306.933 191.666,307.196 191.788,307.333 191.893 C 307.551 192.059,307.554 192.045,307.355 191.792 C 307.229 191.631,306.966 191.509,306.771 191.519 C 306.434 191.538,306.433 191.543,306.750 191.621 M138.052 192.787 C 138.459 192.848,138.492 192.892,138.302 193.125 C 138.126 193.340,138.172 193.334,138.542 193.093 C 139.148 192.699,139.125 192.662,138.292 192.692 C 137.775 192.710,137.710 192.736,138.052 192.787 M143.619 192.845 C 143.691 192.913,144.050 192.909,144.417 192.835 L 145.083 192.702 144.286 192.712 C 143.847 192.717,143.547 192.777,143.619 192.845 M231.145 193.125 C 230.938 193.389,230.944 193.395,231.206 193.190 C 231.365 193.065,231.613 193.008,231.757 193.063 C 231.907 193.120,231.974 193.093,231.915 192.998 C 231.758 192.743,231.398 192.803,231.145 193.125 M140.375 194.500 C 140.424 194.680,140.695 194.755,141.346 194.767 L 142.250 194.783 141.420 194.714 C 140.963 194.676,140.526 194.556,140.449 194.448 C 140.351 194.310,140.329 194.326,140.375 194.500 M138.667 194.667 L 137.750 194.779 138.615 194.806 C 139.091 194.821,139.527 194.758,139.583 194.667 C 139.640 194.575,139.663 194.512,139.635 194.527 C 139.607 194.542,139.171 194.605,138.667 194.667 M98.208 194.786 C 98.460 194.824,98.873 194.824,99.125 194.786 C 99.377 194.748,99.171 194.717,98.667 194.717 C 98.162 194.717,97.956 194.748,98.208 194.786 M143.375 194.786 C 143.627 194.824,144.040 194.824,144.292 194.786 C 144.544 194.748,144.337 194.717,143.833 194.717 C 143.329 194.717,143.123 194.748,143.375 194.786 M185.216 194.791 C 185.931 194.822,187.056 194.822,187.716 194.790 C 188.376 194.759,187.792 194.733,186.417 194.733 C 185.042 194.734,184.501 194.759,185.216 194.791 M189.458 194.784 C 189.665 194.824,190.002 194.824,190.208 194.784 C 190.415 194.745,190.246 194.712,189.833 194.712 C 189.421 194.712,189.252 194.745,189.458 194.784 M230.549 194.791 C 231.264 194.822,232.389 194.822,233.049 194.790 C 233.710 194.759,233.125 194.733,231.750 194.733 C 230.375 194.734,229.835 194.759,230.549 194.791 M234.625 194.784 C 234.831 194.824,235.169 194.824,235.375 194.784 C 235.581 194.745,235.412 194.712,235.000 194.712 C 234.588 194.712,234.419 194.745,234.625 194.784 M237.625 194.784 C 237.831 194.824,238.169 194.824,238.375 194.784 C 238.581 194.745,238.412 194.712,238.000 194.712 C 237.588 194.712,237.419 194.745,237.625 194.784 M239.292 194.784 C 239.498 194.824,239.835 194.824,240.042 194.784 C 240.248 194.745,240.079 194.712,239.667 194.712 C 239.254 194.712,239.085 194.745,239.292 194.784 M241.044 194.786 C 241.297 194.825,241.672 194.824,241.877 194.784 C 242.082 194.744,241.875 194.713,241.417 194.714 C 240.958 194.716,240.791 194.748,241.044 194.786 M242.711 194.786 C 242.964 194.825,243.339 194.824,243.544 194.784 C 243.749 194.744,243.542 194.713,243.083 194.714 C 242.625 194.716,242.457 194.748,242.711 194.786 M247.377 194.786 C 247.631 194.825,248.006 194.824,248.211 194.784 C 248.416 194.744,248.208 194.713,247.750 194.714 C 247.292 194.716,247.124 194.748,247.377 194.786 M249.125 194.784 C 249.331 194.824,249.669 194.824,249.875 194.784 C 250.081 194.745,249.912 194.712,249.500 194.712 C 249.088 194.712,248.919 194.745,249.125 194.784 " stroke="none" fill="#2a2a2a" fill-rule="evenodd"></path><path id="path4" d="M291.875 31.583 C 291.877 31.950,291.911 32.080,291.951 31.873 C 291.991 31.666,291.990 31.366,291.948 31.206 C 291.906 31.047,291.874 31.217,291.875 31.583 M307.415 62.333 C 307.415 76.313,307.434 82.031,307.458 75.042 C 307.482 68.052,307.482 56.615,307.458 49.625 C 307.434 42.635,307.415 48.354,307.415 62.333 M182.410 87.000 C 182.410 91.079,182.432 92.748,182.458 90.708 C 182.485 88.669,182.485 85.331,182.458 83.292 C 182.432 81.252,182.410 82.921,182.410 87.000 M191.743 86.750 C 191.743 90.600,191.765 92.151,191.792 90.197 C 191.818 88.243,191.818 85.093,191.791 83.197 C 191.765 81.301,191.743 82.900,191.743 86.750 M235.701 87.032 C 235.682 91.037,235.723 94.348,235.792 94.391 C 235.905 94.461,235.900 84.865,235.784 81.250 C 235.757 80.425,235.720 83.027,235.701 87.032 M295.377 87.786 C 295.631 87.825,296.006 87.824,296.211 87.784 C 296.416 87.744,296.208 87.713,295.750 87.714 C 295.292 87.716,295.124 87.748,295.377 87.786 M302.958 87.790 C 303.531 87.823,304.469 87.823,305.042 87.790 C 305.615 87.758,305.146 87.731,304.000 87.731 C 302.854 87.731,302.385 87.758,302.958 87.790 M293.208 96.124 C 293.827 96.156,294.840 96.156,295.458 96.124 C 296.077 96.092,295.571 96.065,294.333 96.065 C 293.096 96.065,292.590 96.092,293.208 96.124 M303.213 96.123 C 303.652 96.157,304.327 96.157,304.713 96.122 C 305.100 96.087,304.742 96.059,303.917 96.059 C 303.092 96.060,302.775 96.088,303.213 96.123 M184.044 96.620 C 184.297 96.658,184.672 96.657,184.877 96.617 C 185.082 96.578,184.875 96.546,184.417 96.548 C 183.958 96.549,183.791 96.581,184.044 96.620 M189.627 96.618 C 189.834 96.658,190.134 96.656,190.294 96.615 C 190.453 96.573,190.283 96.540,189.917 96.542 C 189.550 96.544,189.420 96.578,189.627 96.618 M237.377 96.620 C 237.631 96.658,238.006 96.657,238.211 96.617 C 238.416 96.578,238.208 96.546,237.750 96.548 C 237.292 96.549,237.124 96.581,237.377 96.620 M242.960 96.618 C 243.168 96.658,243.468 96.656,243.627 96.615 C 243.786 96.573,243.617 96.540,243.250 96.542 C 242.883 96.544,242.753 96.578,242.960 96.618 M184.711 111.620 C 184.964 111.658,185.339 111.657,185.544 111.617 C 185.749 111.578,185.542 111.546,185.083 111.548 C 184.625 111.549,184.457 111.581,184.711 111.620 M188.958 111.618 C 189.165 111.657,189.502 111.657,189.708 111.618 C 189.915 111.578,189.746 111.545,189.333 111.545 C 188.921 111.545,188.752 111.578,188.958 111.618 M238.044 111.620 C 238.297 111.658,238.672 111.657,238.877 111.617 C 239.082 111.578,238.875 111.546,238.417 111.548 C 237.958 111.549,237.791 111.581,238.044 111.620 M242.292 111.618 C 242.498 111.657,242.835 111.657,243.042 111.618 C 243.248 111.578,243.079 111.545,242.667 111.545 C 242.254 111.545,242.085 111.578,242.292 111.618 M139.042 114.115 C 139.202 114.157,139.465 114.157,139.625 114.115 C 139.785 114.073,139.654 114.039,139.333 114.039 C 139.012 114.039,138.881 114.073,139.042 114.115 M142.792 114.118 C 142.998 114.157,143.335 114.157,143.542 114.118 C 143.748 114.078,143.579 114.045,143.167 114.045 C 142.754 114.045,142.585 114.078,142.792 114.118 M137.336 119.042 C 137.334 119.294,137.485 119.329,138.458 119.302 L 139.583 119.270 138.587 119.209 C 138.040 119.175,137.534 119.058,137.465 118.949 C 137.380 118.815,137.338 118.845,137.336 119.042 M137.465 122.850 C 137.439 124.600,137.473 126.067,137.542 126.109 C 137.610 126.152,137.667 124.719,137.667 122.927 C 137.667 121.134,137.632 119.667,137.590 119.667 C 137.548 119.667,137.492 121.099,137.465 122.850 M137.871 122.542 L 137.908 125.417 137.958 122.632 L 138.008 119.847 139.296 119.790 L 140.583 119.734 139.208 119.700 L 137.833 119.667 137.871 122.542 M142.628 119.787 C 142.928 119.825,143.378 119.824,143.628 119.786 C 143.878 119.748,143.633 119.717,143.083 119.718 C 142.533 119.719,142.328 119.750,142.628 119.787 M245.028 123.125 L 245.000 123.833 245.792 123.804 L 246.583 123.775 245.885 123.712 C 245.216 123.651,245.183 123.622,245.121 123.033 L 245.056 122.417 245.028 123.125 M229.660 123.785 L 230.322 123.852 230.379 125.634 L 230.435 127.417 230.426 125.583 L 230.417 123.750 229.707 123.734 L 228.998 123.717 229.660 123.785 M234.396 125.583 C 234.396 126.592,234.424 126.983,234.457 126.452 C 234.490 125.922,234.490 125.097,234.456 124.619 C 234.422 124.141,234.395 124.575,234.396 125.583 M185.035 125.708 L 185.070 127.417 185.124 125.803 C 185.170 124.447,185.224 124.177,185.464 124.114 C 185.672 124.059,185.648 124.033,185.375 124.019 C 185.007 124.000,185.001 124.032,185.035 125.708 M238.394 125.750 C 238.395 126.667,238.423 127.020,238.456 126.536 C 238.490 126.052,238.490 125.302,238.456 124.869 C 238.421 124.437,238.394 124.833,238.394 125.750 M140.382 125.457 C 141.004 125.489,141.979 125.489,142.549 125.457 C 143.118 125.424,142.608 125.398,141.417 125.398 C 140.225 125.398,139.759 125.425,140.382 125.457 M137.905 129.833 C 137.905 132.079,137.929 132.998,137.958 131.875 C 137.987 130.752,137.987 128.915,137.958 127.792 C 137.929 126.669,137.905 127.587,137.905 129.833 M138.958 125.951 C 139.165 125.991,139.502 125.991,139.708 125.951 C 139.915 125.911,139.746 125.879,139.333 125.879 C 138.921 125.879,138.752 125.911,138.958 125.951 M245.019 152.458 C 245.030 166.277,245.069 177.471,245.105 177.333 C 245.231 176.863,245.250 127.333,245.125 127.333 C 245.056 127.333,245.009 138.640,245.019 152.458 M140.961 133.954 C 141.261 133.991,141.711 133.990,141.961 133.952 C 142.212 133.914,141.967 133.884,141.417 133.885 C 140.867 133.886,140.662 133.917,140.961 133.954 M137.909 134.377 C 137.865 134.492,137.848 136.874,137.872 139.668 L 137.917 144.750 138.709 144.765 L 139.502 144.781 138.751 144.715 L 138.000 144.648 138.000 139.505 C 138.000 135.546,138.048 134.342,138.208 134.277 C 138.372 134.211,138.370 134.190,138.203 134.180 C 138.086 134.173,137.953 134.261,137.909 134.377 M137.874 166.458 L 137.915 187.583 137.958 166.545 L 138.001 145.508 141.042 145.458 L 144.083 145.409 140.958 145.371 L 137.833 145.333 137.874 166.458 M97.390 161.250 C 97.391 161.983,97.420 162.263,97.456 161.871 C 97.491 161.479,97.490 160.879,97.454 160.537 C 97.419 160.196,97.390 160.517,97.390 161.250 M97.542 162.782 C 97.702 162.823,97.965 162.823,98.125 162.782 C 98.285 162.740,98.154 162.705,97.833 162.705 C 97.513 162.705,97.381 162.740,97.542 162.782 M97.203 165.625 L 97.167 167.833 97.708 167.808 C 98.205 167.785,98.213 167.778,97.797 167.714 L 97.343 167.645 97.291 165.531 L 97.239 163.417 97.203 165.625 M97.240 179.583 C 97.240 182.150,97.263 183.177,97.291 181.865 C 97.320 180.553,97.319 178.453,97.291 177.198 C 97.263 175.943,97.240 177.017,97.240 179.583 M184.251 175.831 C 184.193 175.926,184.260 175.954,184.410 175.896 C 184.554 175.841,184.801 175.898,184.960 176.023 C 185.222 176.228,185.228 176.222,185.021 175.958 C 184.769 175.636,184.409 175.577,184.251 175.831 M237.585 175.831 C 237.526 175.926,237.593 175.954,237.743 175.896 C 237.887 175.841,238.135 175.898,238.294 176.023 C 238.556 176.228,238.562 176.222,238.355 175.958 C 238.102 175.636,237.742 175.577,237.585 175.831 M246.214 176.050 C 246.417 176.261,246.614 176.411,246.652 176.384 C 246.749 176.315,246.143 175.667,245.980 175.667 C 245.906 175.667,246.011 175.839,246.214 176.050 M288.729 186.417 C 288.729 187.425,288.757 187.816,288.790 187.286 C 288.823 186.755,288.823 185.930,288.789 185.452 C 288.756 184.974,288.729 185.408,288.729 186.417 M310.062 186.417 C 310.063 187.425,310.090 187.816,310.123 187.286 C 310.157 186.755,310.156 185.930,310.123 185.452 C 310.089 184.974,310.062 185.408,310.062 186.417 M138.234 187.859 C 138.158 187.982,138.189 188.006,138.319 187.926 C 138.437 187.852,138.626 187.928,138.770 188.108 C 139.002 188.396,139.006 188.392,138.837 188.042 C 138.637 187.629,138.417 187.563,138.234 187.859 M143.057 189.583 C 143.058 190.317,143.087 190.596,143.122 190.204 C 143.157 189.812,143.157 189.212,143.121 188.871 C 143.085 188.529,143.057 188.850,143.057 189.583 M289.660 189.208 C 290.350 189.944,290.500 190.077,290.500 189.951 C 290.500 189.925,290.144 189.568,289.708 189.160 L 288.917 188.417 289.660 189.208 M143.553 190.000 C 143.553 190.596,143.584 190.840,143.621 190.542 C 143.658 190.244,143.658 189.756,143.621 189.458 C 143.584 189.160,143.553 189.404,143.553 190.000 M294.131 190.956 C 294.615 190.990,295.365 190.990,295.797 190.956 C 296.230 190.921,295.833 190.894,294.917 190.894 C 294.000 190.895,293.646 190.923,294.131 190.956 M303.292 190.956 C 303.773 190.990,304.560 190.990,305.042 190.956 C 305.523 190.923,305.129 190.895,304.167 190.895 C 303.204 190.895,302.810 190.923,303.292 190.956 M98.232 191.238 C 98.181 191.369,98.174 191.650,98.214 191.863 C 98.271 192.164,98.293 192.132,98.311 191.719 C 98.330 191.276,98.408 191.177,98.792 191.119 L 99.250 191.050 98.786 191.025 C 98.520 191.011,98.284 191.101,98.232 191.238 M141.199 191.291 L 142.981 191.344 143.045 192.047 L 143.108 192.750 143.138 191.958 L 143.167 191.167 141.292 191.202 L 139.417 191.237 141.199 191.291 M143.545 192.000 C 143.545 192.412,143.578 192.581,143.618 192.375 C 143.657 192.169,143.657 191.831,143.618 191.625 C 143.578 191.419,143.545 191.588,143.545 192.000 M291.708 191.875 C 291.394 192.268,290.975 193.198,291.070 193.292 C 291.121 193.344,291.081 193.486,290.980 193.608 C 290.879 193.729,290.838 193.938,290.889 194.070 C 290.940 194.203,290.892 194.353,290.782 194.403 C 290.673 194.453,290.727 194.477,290.902 194.455 C 291.150 194.425,291.267 194.189,291.431 193.389 C 291.546 192.824,291.724 192.205,291.826 192.014 C 292.032 191.629,291.966 191.552,291.708 191.875 M294.320 192.528 C 293.897 193.432,293.887 193.462,293.854 194.010 C 293.843 194.199,293.758 194.307,293.667 194.250 C 293.575 194.193,293.500 194.218,293.500 194.305 C 293.500 194.583,294.196 194.655,296.881 194.657 C 299.256 194.658,299.499 194.632,299.487 194.371 C 299.479 194.197,299.440 194.166,299.390 194.292 C 299.334 194.430,298.923 194.500,298.173 194.500 L 297.041 194.500 297.250 193.542 C 297.364 193.015,297.544 192.358,297.648 192.083 L 297.839 191.583 297.503 192.000 C 297.318 192.229,297.026 192.867,296.853 193.417 L 296.540 194.417 295.353 194.466 C 294.468 194.502,294.167 194.460,294.169 194.299 C 294.172 193.943,294.604 192.428,294.815 192.034 C 294.923 191.832,294.947 191.667,294.868 191.667 C 294.788 191.667,294.542 192.054,294.320 192.528 M300.200 192.341 C 299.796 193.048,299.616 193.888,299.764 194.371 C 299.844 194.627,300.136 194.658,302.462 194.657 C 305.925 194.654,305.747 194.722,306.070 193.293 C 306.216 192.645,306.392 192.029,306.460 191.924 C 306.528 191.820,306.415 191.925,306.208 192.159 C 306.002 192.392,305.870 192.681,305.915 192.800 C 305.959 192.920,305.930 192.977,305.850 192.927 C 305.770 192.877,305.653 193.175,305.591 193.588 C 305.529 194.002,305.408 194.296,305.323 194.243 C 305.237 194.190,305.167 194.226,305.167 194.323 C 305.167 194.430,304.735 194.500,304.083 194.500 C 302.812 194.500,302.776 194.416,303.315 192.683 C 303.489 192.125,303.564 191.710,303.482 191.761 C 303.400 191.812,303.333 191.955,303.333 192.079 C 303.333 192.204,303.254 192.332,303.158 192.364 C 303.061 192.396,302.960 192.534,302.933 192.670 C 302.906 192.806,302.841 193.029,302.788 193.167 C 302.736 193.304,302.625 193.642,302.542 193.917 C 302.404 194.370,300.000 194.858,300.000 194.432 C 300.000 194.085,300.419 192.495,300.608 192.125 C 300.974 191.408,300.628 191.591,300.200 192.341 M98.168 193.494 C 98.066 193.875,97.940 194.295,97.890 194.427 C 97.839 194.559,97.871 194.667,97.960 194.667 C 98.113 194.667,98.535 192.983,98.413 192.858 C 98.381 192.826,98.271 193.112,98.168 193.494 M245.734 193.026 C 245.658 193.149,245.689 193.173,245.819 193.092 C 245.937 193.019,246.126 193.095,246.270 193.275 C 246.502 193.563,246.506 193.559,246.337 193.208 C 246.137 192.796,245.917 192.729,245.734 193.026 M138.241 193.578 C 138.011 194.130,137.909 194.814,138.083 194.639 C 138.206 194.516,138.646 193.000,138.559 193.000 C 138.517 193.000,138.374 193.260,138.241 193.578 M140.817 193.614 C 140.541 194.427,140.502 194.667,140.644 194.667 C 140.759 194.667,141.171 193.128,141.081 193.030 C 141.055 193.001,140.936 193.264,140.817 193.614 M184.196 193.292 C 183.952 193.769,183.827 194.667,184.004 194.667 C 184.094 194.667,184.167 194.484,184.167 194.261 C 184.167 194.038,184.240 193.663,184.329 193.428 C 184.513 192.943,184.422 192.850,184.196 193.292 M187.509 193.536 C 187.397 193.837,187.236 194.215,187.151 194.375 C 187.042 194.581,187.060 194.667,187.211 194.667 C 187.328 194.667,187.508 194.311,187.610 193.875 C 187.833 192.929,187.788 192.782,187.509 193.536 M189.140 193.718 C 189.028 194.137,188.876 194.443,188.801 194.397 C 188.727 194.351,188.667 194.393,188.667 194.490 C 188.667 195.009,189.117 194.555,189.277 193.875 C 189.518 192.850,189.406 192.722,189.140 193.718 M237.489 193.435 C 237.241 194.072,237.177 194.667,237.356 194.667 C 237.435 194.667,237.500 194.474,237.500 194.239 C 237.500 194.004,237.581 193.660,237.680 193.475 C 237.779 193.290,237.819 193.097,237.768 193.046 C 237.717 192.995,237.592 193.170,237.489 193.435 M240.735 193.701 C 240.566 194.095,240.401 194.473,240.367 194.542 C 240.333 194.610,240.407 194.667,240.532 194.667 C 240.664 194.667,240.835 194.339,240.944 193.875 C 241.183 192.858,241.119 192.806,240.735 193.701 M242.473 193.718 C 242.361 194.137,242.209 194.443,242.135 194.397 C 242.061 194.351,242.000 194.393,242.000 194.490 C 242.000 195.009,242.450 194.555,242.610 193.875 C 242.851 192.850,242.740 192.722,242.473 193.718 M248.837 193.572 C 248.729 193.899,248.572 194.167,248.487 194.167 C 248.403 194.167,248.333 194.279,248.333 194.417 C 248.333 195.006,248.790 194.610,248.958 193.875 C 249.177 192.921,249.108 192.750,248.837 193.572 M250.519 193.516 C 250.172 194.511,250.248 194.667,251.083 194.667 C 251.756 194.667,251.831 194.628,251.814 194.292 C 251.799 194.009,251.776 193.989,251.718 194.208 C 251.665 194.415,251.475 194.500,251.071 194.500 C 250.438 194.500,250.431 194.487,250.664 193.677 C 250.875 192.941,250.763 192.818,250.519 193.516 M143.322 193.614 C 143.228 193.860,143.174 194.216,143.201 194.406 C 143.230 194.611,143.325 194.430,143.435 193.958 C 143.640 193.085,143.585 192.920,143.322 193.614 M185.732 193.696 C 185.660 193.909,185.619 194.151,185.642 194.235 C 185.665 194.318,185.587 194.448,185.467 194.524 C 185.301 194.629,185.313 194.662,185.520 194.664 C 185.703 194.666,185.822 194.468,185.890 194.050 C 186.006 193.331,185.921 193.139,185.732 193.696 M231.087 193.494 C 230.864 193.855,230.691 194.667,230.837 194.667 C 230.918 194.667,231.061 194.390,231.154 194.051 C 231.326 193.428,231.294 193.159,231.087 193.494 M232.709 193.723 C 232.611 193.938,232.589 194.208,232.661 194.324 C 232.744 194.458,232.821 194.333,232.876 193.975 C 232.981 193.283,232.939 193.219,232.709 193.723 M239.066 193.696 C 238.994 193.909,238.954 194.185,238.978 194.308 C 239.003 194.432,238.942 194.484,238.844 194.424 C 238.747 194.363,238.667 194.393,238.667 194.490 C 238.667 194.968,239.134 194.598,239.223 194.050 C 239.340 193.331,239.255 193.139,239.066 193.696 M245.363 193.875 C 245.162 194.614,245.221 194.667,246.260 194.667 C 247.012 194.667,247.167 194.617,247.169 194.375 C 247.170 194.215,247.214 193.896,247.267 193.667 C 247.342 193.340,247.324 193.304,247.184 193.500 C 247.085 193.637,247.004 193.905,247.003 194.094 C 247.000 194.385,246.883 194.444,246.230 194.478 L 245.460 194.517 245.571 193.925 C 245.710 193.184,245.560 193.148,245.363 193.875 M229.341 193.667 C 229.195 194.062,229.205 194.714,229.354 194.453 C 229.446 194.290,229.489 194.027,229.447 193.870 C 229.406 193.712,229.358 193.621,229.341 193.667 M234.188 194.139 C 233.954 194.564,234.063 194.837,234.352 194.548 C 234.450 194.450,234.502 194.230,234.467 194.059 C 234.409 193.782,234.380 193.790,234.188 194.139 " stroke="none" fill="#7c7c7c" fill-rule="evenodd"></path></g></svg>